<?xml version="1.0" encoding="UTF-8"?>
<svg id="_レイヤー_2" data-name="レイヤー 2" xmlns="http://www.w3.org/2000/svg" viewBox="0 0 612.61 155.89">
  <defs>
    <style>
      .cls-1 {
        fill: #fff;
      }
    </style>
  </defs>
  <g id="_レイヤー_1-2" data-name="レイヤー 1">
    <g>
      <g>
        <path class="cls-1" d="M39.51,93.27c0,2.1-.65,3.81-1.96,5.13-1.3,1.33-3,1.99-5.1,1.99H7.18c-2.1,0-3.82-.66-5.16-1.99-1.35-1.32-2.02-3.04-2.02-5.13v-25.47h8.92v24.7h21.68v-23.93L2.89,35.09c-1.92-2.31-2.89-4.85-2.89-7.63V7.12C0,5.03.67,3.32,2.02,1.99,3.37.66,5.09,0,7.18,0h25.27c2.09,0,3.79.66,5.1,1.99,1.3,1.33,1.96,3.04,1.96,5.13v23.35h-8.92V7.89H8.92v21.17l27.84,33.48c1.84,2.22,2.76,4.73,2.76,7.51v23.22Z"/>
        <path class="cls-1" d="M64.72,100.39h-8.92V0h8.92v100.39Z"/>
        <path class="cls-1" d="M116.04,7.89h-15.52v92.5h-8.92V7.89h-15.65V0h40.09v7.89Z"/>
        <path class="cls-1" d="M169.22,100.39h-9.37l-18.67-53.76,1.22-1.8h15.91V7.89h-22.9v92.5h-8.92V0h33.61c2.09,0,3.81.66,5.13,1.99,1.33,1.33,1.99,3.04,1.99,5.13v38.1c0,4.83-3.25,7.25-9.75,7.25-.64,0-1.58-.03-2.82-.1-1.24-.06-2.14-.1-2.69-.1,5.77,16,11.52,32.03,17.26,48.11Z"/>
        <path class="cls-1" d="M224.2,93.27c0,2.1-.67,3.81-2.02,5.13-1.35,1.33-3.07,1.99-5.16,1.99h-27.33c-2.1,0-3.81-.66-5.13-1.99-1.33-1.32-1.99-3.04-1.99-5.13V0h8.92v92.5h23.8V0h8.92v93.27Z"/>
        <path class="cls-1" d="M279.36,93.27c0,2.1-.65,3.81-1.96,5.13-1.3,1.33-3,1.99-5.1,1.99h-25.27c-2.1,0-3.82-.66-5.16-1.99-1.35-1.32-2.02-3.04-2.02-5.13v-25.47h8.92v24.7h21.68v-23.93l-27.71-33.49c-1.92-2.31-2.89-4.85-2.89-7.63V7.12c0-2.09.67-3.81,2.02-5.13,1.35-1.33,3.07-1.99,5.16-1.99h25.27c2.09,0,3.79.66,5.1,1.99,1.3,1.33,1.96,3.04,1.96,5.13v23.35h-8.92V7.89h-21.68v21.17l27.84,33.48c1.84,2.22,2.76,4.73,2.76,7.51v23.22Z"/>
        <path class="cls-1" d="M360,93.27c0,2.1-.65,3.81-1.96,5.13-1.3,1.33-3,1.99-5.1,1.99h-25.27c-2.1,0-3.82-.66-5.16-1.99-1.35-1.32-2.02-3.04-2.02-5.13v-25.47h8.92v24.7h21.68v-23.93l-27.71-33.49c-1.92-2.31-2.89-4.85-2.89-7.63V7.12c0-2.09.67-3.81,2.02-5.13,1.35-1.33,3.07-1.99,5.16-1.99h25.27c2.09,0,3.79.66,5.1,1.99,1.3,1.33,1.96,3.04,1.96,5.13v23.35h-8.92V7.89h-21.68v21.17l27.84,33.48c1.84,2.22,2.76,4.73,2.76,7.51v23.22Z"/>
        <path class="cls-1" d="M409.9,37.98l-15.01,61.9-6.22,24.18h-8.4l6.29-24.18-15.4-61.9h8.79l10.65,49.14,10.78-49.14h8.53Z"/>
        <path class="cls-1" d="M453.97,93.14c0,4.83-2.42,7.25-7.25,7.25h-19.57c-4.83,0-7.25-2.42-7.25-7.25v-14.18h8.4v14.05h17.26v-12.45l-22.32-18.28c-2.14-1.71-3.21-3.93-3.21-6.67v-10.39c0-4.83,2.42-7.25,7.25-7.25h19.31c4.83,0,7.25,2.42,7.25,7.25v12.44h-8.27v-12.32h-17.26v10.91l22.52,18.28c2.09,1.67,3.14,3.93,3.14,6.8v11.8Z"/>
        <path class="cls-1" d="M489.96,100.39h-12.12c-4.79,0-7.18-2.42-7.18-7.25v-47.66h-7.51v-7.51h7.51v-19.44h8.4v19.44h10.91v7.51h-10.91v47.4h10.91v7.51Z"/>
        <path class="cls-1" d="M535.76,93.14c0,4.83-2.4,7.25-7.18,7.25h-20.53c-4.79,0-7.18-2.42-7.18-7.25v-47.92c0-4.83,2.39-7.25,7.18-7.25h20.53c4.79,0,7.18,2.42,7.18,7.25v22.45l-2.89,3.02h-23.73v22.58h18.35v-11.42h8.27v11.29ZM527.48,63.89v-18.8h-18.35v18.8h18.35Z"/>
        <path class="cls-1" d="M612.61,100.39h-8.53v-54.78l-18.6.51v54.27h-8.47v-54.78l-18.6.51v54.27h-8.53v-62.42h8.53v1.73c3.34-.43,6.67-.88,10.01-1.35,4.06-.51,7.42-.77,10.07-.77s4.53.79,5.77,2.37c3.59-.47,7.16-.96,10.71-1.47,4.66-.6,8.19-.9,10.58-.9,4.7,0,7.06,2.33,7.06,6.99v55.81Z"/>
      </g>
      <g>
        <path class="cls-1" d="M351.36,138.69l-3.53,17.14h-2.09l-2.51-12.99-2.51,12.99h-2.06l-3.53-17.14h2.2l2.41,13.18,2.5-13.18h2.04l2.5,13.18,2.41-13.18h2.2Z"/>
        <path class="cls-1" d="M356.72,134.94h-2.37v-2.95h2.37v2.95ZM356.68,155.79h-2.3v-17.1h2.3v17.1Z"/>
        <path class="cls-1" d="M366.81,155.79h-3.32c-1.31,0-1.97-.66-1.97-1.99v-13.06h-2.06v-2.06h2.06v-5.33h2.3v5.33h2.99v2.06h-2.99v12.99h2.99v2.06Z"/>
        <path class="cls-1" d="M379.62,155.79h-2.34v-15.01l-5.15.14v14.87h-2.34v-27.51h2.34v10.88l2.78-.35c1.17-.15,2.09-.23,2.76-.23,1.3,0,1.95.64,1.95,1.92v15.29Z"/>
        <path class="cls-1" d="M401.46,153.84c0,.57-.18,1.04-.54,1.41s-.82.54-1.4.54h-6.93c-.57,0-1.05-.18-1.42-.54s-.55-.83-.55-1.41v-6.98h2.44v6.77h5.94v-6.56l-7.59-9.18c-.53-.63-.79-1.33-.79-2.09v-5.57c0-.57.18-1.04.55-1.41s.84-.54,1.42-.54h6.93c.57,0,1.04.18,1.4.54s.54.83.54,1.41v6.4h-2.44v-6.19h-5.94v5.8l7.63,9.18c.5.61.76,1.29.76,2.06v6.36Z"/>
        <path class="cls-1" d="M408.36,155.79h-2.44v-27.51h2.44v27.51Z"/>
        <path class="cls-1" d="M422.43,130.44h-4.25v25.35h-2.44v-25.35h-4.29v-2.16h10.99v2.16Z"/>
        <path class="cls-1" d="M437,155.79h-2.57l-5.12-14.73.33-.49h4.36v-10.12h-6.28v25.35h-2.44v-27.51h9.21c.57,0,1.04.18,1.41.54s.54.83.54,1.41v10.44c0,1.32-.89,1.99-2.67,1.99-.18,0-.43,0-.77-.03s-.59-.03-.74-.03c1.58,4.38,3.16,8.78,4.73,13.18Z"/>
        <path class="cls-1" d="M452.06,153.84c0,.57-.18,1.04-.55,1.41s-.84.54-1.42.54h-7.49c-.57,0-1.04-.18-1.41-.54s-.54-.83-.54-1.41v-25.56h2.44v25.35h6.52v-25.35h2.44v25.56Z"/>
        <path class="cls-1" d="M467.18,153.84c0,.57-.18,1.04-.54,1.41s-.82.54-1.4.54h-6.93c-.57,0-1.05-.18-1.42-.54s-.55-.83-.55-1.41v-6.98h2.44v6.77h5.94v-6.56l-7.59-9.18c-.53-.63-.79-1.33-.79-2.09v-5.57c0-.57.18-1.04.55-1.41s.84-.54,1.42-.54h6.93c.57,0,1.04.18,1.4.54s.54.83.54,1.41v6.4h-2.44v-6.19h-5.94v5.8l7.63,9.18c.5.61.76,1.29.76,2.06v6.36Z"/>
        <path class="cls-1" d="M489.57,153.84c0,.57-.19,1.04-.56,1.41s-.85.54-1.42.54h-7.08c-.57,0-1.04-.18-1.41-.54s-.54-.83-.54-1.41v-23.61c0-.57.18-1.04.54-1.41s.83-.54,1.41-.54h7.08c.57,0,1.05.18,1.42.54s.56.83.56,1.41v6.4h-2.46v-6.19h-6.12v23.19h6.12v-6.77h2.46v6.98Z"/>
        <path class="cls-1" d="M503.39,153.8c0,1.32-.66,1.99-1.99,1.99h-5.87c-1.31,0-1.97-.66-1.97-1.99v-13.13c0-1.32.66-1.99,1.97-1.99h5.87c1.32,0,1.99.66,1.99,1.99v13.13ZM501.05,153.73v-12.99h-5.15v12.99h5.15Z"/>
        <path class="cls-1" d="M517.03,153.8c0,1.32-.66,1.99-1.99,1.99h-5.87c-1.31,0-1.97-.66-1.97-1.99v-13.13c0-1.32.66-1.99,1.97-1.99h5.87c1.32,0,1.99.66,1.99,1.99v13.13ZM514.69,153.73v-12.99h-5.15v12.99h5.15Z"/>
        <path class="cls-1" d="M529.79,144.31h-2.3v-3.53l-4.31.14v14.87h-2.34v-17.1h2.34v.47c.77-.12,1.55-.24,2.34-.37.94-.14,1.72-.21,2.34-.21,1.29,0,1.93.64,1.93,1.92v3.81Z"/>
        <path class="cls-1" d="M542.48,155.79h-2.32v-.47c-2.51.39-3.9.58-4.17.58-1,0-1.8-.34-2.41-1.01s-.91-1.52-.91-2.52v-10c0-1.05.35-1.93,1.04-2.63s1.56-1.05,2.6-1.05h3.85v-10.41h2.32v27.51ZM540.16,153.66v-12.92h-3.23c-1.29,0-1.93.66-1.93,1.99v9.14c0,1.31.64,1.97,1.93,1.97.3,0,1.38-.06,3.23-.18Z"/>
        <path class="cls-1" d="M548.81,134.94h-2.37v-2.95h2.37v2.95ZM548.78,155.79h-2.3v-17.1h2.3v17.1Z"/>
        <path class="cls-1" d="M562.58,155.79h-2.34v-15.01l-5.15.14v14.87h-2.34v-17.1h2.34v.47c.91-.12,1.83-.24,2.76-.37,1.12-.14,2.05-.21,2.78-.21,1.3,0,1.95.64,1.95,1.92v15.29Z"/>
        <path class="cls-1" d="M576.02,155.79h-2.3v-.47c-.93.13-1.85.25-2.78.37-1.15.14-2.07.21-2.76.21-1.28,0-1.92-.63-1.92-1.9v-6.24c0-1.31.66-1.97,1.99-1.97h5.5v-5.15h-5.03v2.92h-2.27v-2.88c0-1.32.66-1.99,1.97-1.99h5.62c1.31,0,1.97.66,1.97,1.99v15.12ZM573.76,153.66v-6.05h-5.22v6.15l5.22-.11Z"/>
        <path class="cls-1" d="M586.01,155.79h-3.32c-1.31,0-1.97-.66-1.97-1.99v-13.06h-2.06v-2.06h2.06v-5.33h2.3v5.33h2.99v2.06h-2.99v12.99h2.99v2.06Z"/>
        <path class="cls-1" d="M598.82,153.8c0,1.32-.66,1.99-1.99,1.99h-5.87c-1.31,0-1.97-.66-1.97-1.99v-13.13c0-1.32.66-1.99,1.97-1.99h5.87c1.32,0,1.99.66,1.99,1.99v13.13ZM596.48,153.73v-12.99h-5.15v12.99h5.15Z"/>
        <path class="cls-1" d="M611.58,144.31h-2.3v-3.53l-4.31.14v14.87h-2.34v-17.1h2.34v.47c.77-.12,1.55-.24,2.34-.37.94-.14,1.72-.21,2.34-.21,1.29,0,1.93.64,1.93,1.92v3.81Z"/>
      </g>
    </g>
  </g>
</svg>